<svg width="70" height="70" viewBox="0 0 70 70" fill="none" xmlns="http://www.w3.org/2000/svg">
<g filter="url(#filter0_d_4701_18)">
<circle cx="35" cy="31" r="25" fill="white"/>
</g>
<path d="M56.0003 34.6934C55.9893 34.743 55.9801 34.7917 55.9675 34.8404C55.9199 35.0179 55.8174 35.1758 55.6747 35.2915C55.532 35.4072 55.3563 35.4748 55.1729 35.4847C54.9248 35.5036 54.6755 35.4701 54.4412 35.3864L54.2228 35.3117C54.1388 35.2831 54.0792 35.2898 54.0338 35.3671C54.0161 35.4005 53.9877 35.427 53.9531 35.4422C53.9185 35.4575 53.8797 35.4606 53.8431 35.4511C53.8213 35.4511 53.7995 35.4511 53.7726 35.4511V34.4431C53.844 34.4431 53.9137 34.4431 53.9834 34.4431C54.0019 34.4431 54.0237 34.4717 54.0338 34.4918C54.1181 34.6733 54.2281 34.8416 54.3606 34.9916C54.4415 35.0868 54.5468 35.1583 54.6651 35.1983C54.7834 35.2384 54.9105 35.2457 55.0326 35.2193C55.1159 35.206 55.1927 35.1661 55.2514 35.1055C55.3102 35.0449 55.3478 34.9669 55.3585 34.8833C55.3669 34.826 55.3583 34.7676 55.3338 34.7152C55.3093 34.6628 55.27 34.6187 55.2207 34.5884C55.0986 34.5076 54.9705 34.436 54.8377 34.3742C54.6621 34.2902 54.479 34.2205 54.3018 34.139C54.2307 34.1044 54.1625 34.0642 54.0977 34.0189C53.9506 33.9298 53.836 33.7959 53.7708 33.6368C53.7056 33.4777 53.6933 33.3019 53.7356 33.1352C53.7753 32.9695 53.8639 32.8196 53.9899 32.7048C54.1158 32.5901 54.2734 32.5159 54.4421 32.4918C54.6639 32.4534 54.892 32.473 55.104 32.5489C55.1745 32.5733 55.2443 32.6001 55.3148 32.6245C55.4669 32.6766 55.5114 32.6564 55.5752 32.5061H55.7483C55.7609 32.5061 55.7743 32.5061 55.7911 32.5061V33.3696C55.7197 33.3696 55.6517 33.3696 55.5845 33.3696C55.5677 33.3696 55.5483 33.3444 55.5366 33.3267C55.4626 33.2004 55.3807 33.0789 55.2913 32.963C55.2078 32.8636 55.0977 32.7901 54.9739 32.7512C54.8501 32.7122 54.7178 32.7093 54.5924 32.7429C54.5169 32.7542 54.447 32.7894 54.393 32.8434C54.339 32.8974 54.3038 32.9673 54.2925 33.0428C54.2869 33.0824 54.2917 33.1227 54.3064 33.1598C54.3211 33.1969 54.3453 33.2296 54.3765 33.2545C54.4745 33.3312 54.58 33.3976 54.6915 33.4527C54.9032 33.5493 55.1241 33.6207 55.3367 33.719C55.4545 33.7731 55.5669 33.8381 55.6727 33.9131C55.757 33.9694 55.8283 34.0431 55.882 34.1291C55.9358 34.2151 55.9706 34.3115 55.9843 34.412C55.9873 34.4223 55.9915 34.4322 55.9969 34.4414L56.0003 34.6934Z" fill="black"/>
<path d="M13.9986 32.5597L14.8924 32.5009C14.9764 32.495 15.0604 32.485 15.157 32.4766V32.5606C15.157 33.2846 15.157 34.009 15.157 34.7336C15.157 34.7992 15.1629 34.8647 15.1679 34.9302C15.1712 34.9807 15.1918 35.0286 15.2262 35.0657C15.2606 35.1029 15.3068 35.1271 15.3569 35.1343L15.4325 35.1536V35.3972H14.0188V35.1536L14.1179 35.1343C14.1641 35.1237 14.2055 35.0983 14.2359 35.0618C14.2662 35.0254 14.2838 34.9801 14.2859 34.9327C14.2927 34.8806 14.2967 34.8282 14.2977 34.7756C14.2977 34.2352 14.2977 33.6951 14.2977 33.1553C14.2972 33.1114 14.2939 33.0677 14.2876 33.0242C14.2725 32.9016 14.2347 32.8604 14.1137 32.8361C14.0747 32.8307 14.0354 32.8279 13.9961 32.8277L13.9986 32.5597Z" fill="black"/>
<path d="M38.2871 28.6533C38.2191 28.7129 38.1519 28.7692 38.0872 28.828C37.7361 29.1413 37.4379 29.4941 37.2632 29.9385C36.9784 30.66 37.0179 31.8041 37.7907 32.5425C38.0139 32.7688 38.2685 32.9617 38.5467 33.1154C38.5545 33.1177 38.5617 33.1219 38.5676 33.1274C38.5736 33.133 38.5781 33.1399 38.581 33.1476C38.5838 33.1552 38.5849 33.1634 38.584 33.1715C38.5832 33.1796 38.5805 33.1874 38.5761 33.1943C38.4728 33.4522 38.3829 33.716 38.2661 33.9688C38 34.558 37.6333 35.0963 37.1825 35.5598C37.0531 35.6883 36.915 35.8079 36.7693 35.9176C36.6136 36.0452 36.4274 36.13 36.229 36.1638C36.0306 36.1975 35.8268 36.179 35.6378 36.11C35.4379 36.0428 35.2405 35.9688 35.0498 35.8907C34.5201 35.6695 33.9243 35.6677 33.3933 35.8857C33.1917 35.9697 32.9893 36.0461 32.7851 36.12C32.6023 36.1898 32.4046 36.211 32.2111 36.1815C32.0177 36.1521 31.8352 36.073 31.6814 35.952C31.4097 35.7529 31.1708 35.5126 30.9733 35.2397C30.6346 34.8019 30.3419 34.3304 30.0997 33.8327C29.7705 33.1426 29.5639 32.4004 29.489 31.6395C29.4328 31.1459 29.4427 30.647 29.5184 30.156C29.6419 29.453 29.9073 28.8179 30.4214 28.308C30.8233 27.9106 31.3467 27.6592 31.9082 27.594C32.4334 27.5142 32.9704 27.599 33.4454 27.8368C33.5294 27.8796 33.6226 27.9149 33.7117 27.9502C33.842 28.0043 33.9817 28.0321 34.1228 28.0321C34.2639 28.0321 34.4037 28.0043 34.534 27.9502C34.7297 27.8721 34.9204 27.7822 35.122 27.7184C36.0217 27.4386 36.8818 27.5 37.6798 28.0384C37.8975 28.1841 38.0885 28.3662 38.2443 28.5768C38.2535 28.602 38.2687 28.6264 38.2871 28.6533Z" fill="black"/>
<path d="M19.3451 31.6891C19.3308 31.7105 19.3187 31.7333 19.309 31.7572C19.197 32.1245 19.085 32.4916 18.973 32.8584L18.217 35.3515C18.212 35.3683 18.2061 35.3843 18.1994 35.4045H17.8088C17.7995 35.3801 17.7886 35.3524 17.7794 35.3205C17.3946 34.1361 17.0096 32.9519 16.6244 31.7681C16.6143 31.737 16.6244 31.6799 16.5471 31.6967V31.7656C16.5471 32.7277 16.5471 33.6892 16.5471 34.6501C16.5491 34.7346 16.5573 34.8188 16.5714 34.9021C16.5767 34.9474 16.5966 34.9897 16.6282 35.0226C16.6597 35.0555 16.7011 35.0772 16.7462 35.0844C16.8512 35.1071 16.9578 35.1239 17.0704 35.1441V35.4045H15.6962V35.1331C15.7709 35.1231 15.8482 35.1138 15.9255 35.1004C16.1321 35.0643 16.1867 35.0071 16.2086 34.8013C16.2136 34.7467 16.217 34.6913 16.217 34.6333C16.217 33.8169 16.217 33.0001 16.217 32.1831C16.2153 32.0986 16.2074 32.0144 16.1934 31.9311C16.1882 31.8834 16.1673 31.8388 16.134 31.8043C16.1007 31.7698 16.0569 31.7473 16.0095 31.7404C15.907 31.7194 15.8028 31.7043 15.6953 31.6866V31.4287H15.7558C16.29 31.4287 16.8243 31.4287 17.3585 31.4287C17.4114 31.4287 17.4291 31.4481 17.4425 31.4943C17.7158 32.3343 17.9891 33.1765 18.2624 34.021C18.2699 34.0428 18.2783 34.0647 18.2926 34.105C18.3573 33.8933 18.4161 33.7018 18.474 33.5094C18.6784 32.8374 18.882 32.1654 19.0847 31.4934C19.086 31.483 19.0895 31.4729 19.0948 31.4639C19.1001 31.4548 19.1073 31.4469 19.1158 31.4407C19.1243 31.4345 19.1339 31.4301 19.1442 31.4277C19.1545 31.4254 19.1651 31.4252 19.1754 31.4271C19.7072 31.4271 20.2389 31.4271 20.7714 31.4271H20.8428V31.6891C20.7588 31.7009 20.6807 31.7093 20.5992 31.7244C20.3993 31.7605 20.3346 31.8353 20.3212 32.0386C20.3212 32.089 20.3212 32.1394 20.3212 32.1898C20.3212 33.0046 20.3212 33.8194 20.3212 34.6342C20.3225 34.7238 20.3309 34.8131 20.3464 34.9013C20.3526 34.9427 20.3716 34.9811 20.4007 35.0112C20.4297 35.0413 20.4674 35.0616 20.5085 35.0693C20.6177 35.0945 20.7278 35.1121 20.8445 35.1348V35.3935H18.8495V35.1323L19.1444 35.0836C19.2029 35.0761 19.2568 35.0478 19.2961 35.0038C19.3354 34.9599 19.3576 34.9032 19.3586 34.8442C19.3644 34.7854 19.3712 34.7257 19.3712 34.6669C19.3712 33.6942 19.3712 32.7215 19.3712 31.7488V31.69L19.3451 31.6891Z" fill="black"/>
<path d="M39.8135 35.4814H39.5371C39.5094 34.9522 39.4817 34.4255 39.4531 33.8854C39.5623 33.8854 39.6648 33.8854 39.7664 33.8854C39.7824 33.8854 39.8026 33.9182 39.811 33.9392C39.9079 34.1963 40.0399 34.4389 40.2032 34.6599C40.3813 34.89 40.593 35.0799 40.882 35.1563C41.0861 35.2184 41.3055 35.2068 41.5019 35.1236C41.6304 35.0735 41.7362 34.9781 41.7992 34.8553C41.8621 34.7326 41.878 34.5911 41.8438 34.4574C41.8327 34.3965 41.8087 34.3386 41.7735 34.2876C41.7383 34.2367 41.6927 34.1938 41.6396 34.1618C41.5041 34.0835 41.3629 34.0155 41.2171 33.9585C40.9752 33.8661 40.7266 33.7905 40.483 33.7065C40.2164 33.615 39.9827 33.447 39.811 33.2235C39.37 32.6355 39.5506 31.509 40.5997 31.3478C40.9219 31.3063 41.2492 31.3588 41.5422 31.499C41.5878 31.5203 41.635 31.538 41.6833 31.5519C41.7071 31.5613 41.7326 31.5656 41.7582 31.5645C41.7837 31.5634 41.8088 31.5569 41.8317 31.5455C41.8546 31.5341 41.8748 31.518 41.8911 31.4983C41.9073 31.4785 41.9193 31.4556 41.9261 31.4309C41.937 31.4049 41.9454 31.378 41.9563 31.3469H42.1949C42.2167 31.7669 42.2386 32.181 42.2612 32.6069C42.173 32.6069 42.0932 32.6069 42.0092 32.6069C41.995 32.6069 41.9807 32.5784 41.9698 32.5607C41.8597 32.3868 41.7631 32.2029 41.6396 32.0391C41.4947 31.8334 41.2759 31.6917 41.029 31.6434C40.8403 31.6023 40.6433 31.6257 40.4695 31.7098C40.1495 31.8702 40.0999 32.2272 40.3603 32.4708C40.4741 32.5719 40.6086 32.647 40.7543 32.6909C41.0432 32.7884 41.3364 32.8749 41.6195 32.9858C41.7675 33.0472 41.9061 33.1292 42.0311 33.2294C42.3427 33.4721 42.4654 33.8073 42.4746 34.1937C42.4872 34.7279 42.2159 35.1849 41.753 35.3865C41.4262 35.5259 41.0602 35.5435 40.7215 35.436C40.5695 35.3924 40.4225 35.3327 40.2738 35.2806C40.2142 35.2596 40.1554 35.2353 40.094 35.2185C40.0714 35.2091 40.0471 35.2047 40.0226 35.2054C39.9982 35.2061 39.9742 35.2119 39.9521 35.2225C39.9301 35.2332 39.9105 35.2483 39.8947 35.267C39.879 35.2857 39.8673 35.3075 39.8605 35.331C39.8404 35.3772 39.8303 35.4276 39.8135 35.4814Z" fill="black"/>
<path d="M22.8308 35.0425C22.7543 35.103 22.6813 35.166 22.6031 35.2223C22.4054 35.3751 22.1682 35.4684 21.9194 35.4911C21.7467 35.5104 21.5728 35.4683 21.4281 35.3721C21.2834 35.276 21.1772 35.1319 21.1281 34.9653C21.0873 34.8135 21.0937 34.6529 21.1463 34.5048C21.199 34.3567 21.2955 34.2281 21.4229 34.1362C21.6422 33.9839 21.8933 33.8834 22.1571 33.8422C22.3444 33.8061 22.5351 33.7884 22.7241 33.7582C22.7434 33.7582 22.7753 33.733 22.7753 33.7195C22.7686 33.4969 22.7753 33.2718 22.7451 33.0475C22.7199 32.8434 22.6149 32.7577 22.4091 32.7241C22.2814 32.6958 22.148 32.7081 22.0277 32.7594C21.9437 32.7972 21.9437 32.8199 21.9883 32.8947C22.016 32.9392 22.0479 32.9787 22.0723 33.0291C22.1009 33.0847 22.1151 33.1466 22.1134 33.2091C22.1116 33.2717 22.0941 33.3327 22.0624 33.3867C22.0307 33.4406 21.9859 33.4856 21.9321 33.5175C21.8783 33.5494 21.8173 33.5672 21.7547 33.5692C21.6988 33.5753 21.6422 33.5736 21.5867 33.5641C21.3011 33.5112 21.1667 33.2382 21.2936 32.961C21.3455 32.8526 21.427 32.7612 21.5288 32.6973C21.7149 32.5766 21.9283 32.5046 22.1495 32.4881C22.4186 32.4556 22.6914 32.4745 22.9534 32.5435C23.3381 32.6536 23.5414 32.9182 23.5918 33.3046C23.6034 33.3959 23.6088 33.488 23.6078 33.5801C23.6078 34.011 23.6078 34.4411 23.6078 34.8712C23.6078 34.8939 23.6078 34.9157 23.6078 34.9375C23.6145 35.0543 23.6716 35.0929 23.7842 35.0577C23.8153 35.0476 23.8455 35.0333 23.8774 35.0249C23.8932 35.0169 23.9112 35.0141 23.9287 35.017C23.9462 35.0198 23.9624 35.0281 23.9749 35.0407C23.9874 35.0533 23.9956 35.0695 23.9983 35.0871C24.001 35.1046 23.9981 35.1225 23.99 35.1383C23.9774 35.1779 23.9555 35.2139 23.9261 35.2433C23.838 35.3301 23.7302 35.3944 23.6118 35.4305C23.4935 35.4666 23.3682 35.4736 23.2466 35.4508C23.179 35.4394 23.1148 35.4129 23.0588 35.3734C23.0029 35.3338 22.9565 35.2822 22.9232 35.2223C22.8887 35.1669 22.8627 35.1055 22.8308 35.0425ZM22.7795 33.9808C22.5725 34.0021 22.3722 34.0665 22.1915 34.1698C22.1006 34.2229 22.0279 34.3022 21.9829 34.3974C21.9379 34.4926 21.9228 34.5992 21.9395 34.7032C21.9426 34.7686 21.9654 34.8315 22.0048 34.8838C22.0442 34.9361 22.0984 34.9753 22.1605 34.9963C22.2119 35.0177 22.2672 35.0285 22.323 35.0279C22.3787 35.0273 22.4338 35.0154 22.4848 34.993C22.5359 34.9705 22.5818 34.938 22.6199 34.8972C22.658 34.8565 22.6874 34.8085 22.7065 34.7561C22.8098 34.5075 22.7913 34.2487 22.7795 33.9808Z" fill="black"/>
<path d="M47.7381 33.9475C47.7289 34.4969 47.555 34.932 47.1333 35.2479C46.9681 35.3661 46.7781 35.4454 46.5778 35.4797C46.3775 35.514 46.172 35.5024 45.9768 35.4458C45.7816 35.3892 45.6018 35.289 45.4509 35.1529C45.3 35.0168 45.1819 34.8482 45.1056 34.6599C45.0093 34.4408 44.9601 34.2039 44.9609 33.9646C44.9618 33.7254 45.0128 33.4889 45.1106 33.2705C45.3298 32.7531 45.8095 32.4641 46.3782 32.4708C47.1543 32.4801 47.6314 33.0588 47.7138 33.6846C47.7264 33.7905 47.7322 33.8845 47.7381 33.9475ZM46.7763 33.9845C46.7763 33.8165 46.7839 33.6418 46.7763 33.4713C46.7748 33.2928 46.74 33.1162 46.6738 32.9505C46.6496 32.885 46.6056 32.8288 46.548 32.7895C46.4903 32.7502 46.4219 32.7298 46.3521 32.7312C46.2814 32.7271 46.2113 32.7463 46.1526 32.786C46.0938 32.8256 46.0497 32.8834 46.027 32.9505C45.9879 33.0501 45.9614 33.1542 45.9481 33.2604C45.8953 33.71 45.8916 34.1641 45.9372 34.6145C45.9511 34.7538 45.9822 34.891 46.0296 35.0227C46.0516 35.0882 46.0947 35.1446 46.1522 35.183C46.2096 35.2214 46.2781 35.2398 46.3471 35.2353C46.4158 35.2388 46.4839 35.2208 46.5419 35.1838C46.5999 35.1467 46.6448 35.0925 46.6705 35.0286C46.6947 34.9771 46.713 34.923 46.7251 34.8673C46.7802 34.5765 46.7975 34.2798 46.7763 33.9845Z" fill="black"/>
<path d="M53.0101 34.561L53.2621 34.6508C53.1621 34.9326 52.9665 35.1704 52.7094 35.3228C52.2826 35.5631 51.5686 35.5858 51.0991 35.1599C50.8199 34.9055 50.6489 34.5537 50.6211 34.1771C50.5885 33.8928 50.6242 33.6048 50.7253 33.3371C50.8213 33.0775 50.9965 32.8546 51.226 32.6999C51.4556 32.5453 51.7279 32.4667 52.0046 32.4752C52.7606 32.4752 53.1991 33.0154 53.2705 33.6252C53.2822 33.7243 53.2856 33.8251 53.2932 33.9335H51.5846C51.5801 33.9466 51.5767 33.9601 51.5745 33.9738C51.5538 34.2415 51.5785 34.5107 51.6476 34.7701C51.7459 35.091 51.9676 35.2321 52.2919 35.1851C52.444 35.1663 52.585 35.096 52.6917 34.986C52.7887 34.8764 52.8798 34.7617 52.9647 34.6424C52.9817 34.6164 52.9969 34.5891 53.0101 34.561ZM52.3876 33.6773C52.3948 33.5699 52.3948 33.4621 52.3876 33.3547C52.3714 33.2093 52.341 33.0658 52.2969 32.9263C52.2758 32.8629 52.2338 32.8084 52.1779 32.7718C52.1219 32.7353 52.0552 32.7186 51.9886 32.7247C51.9221 32.7212 51.8563 32.7394 51.801 32.7765C51.7457 32.8136 51.704 32.8676 51.682 32.9305C51.5863 33.1691 51.5896 33.4219 51.5762 33.6773H52.3876Z" fill="black"/>
<path d="M28.7109 34.5672L28.9411 34.6512C28.8822 34.8113 28.7942 34.9591 28.6815 35.0872C28.4827 35.3086 28.2082 35.4476 27.9121 35.4769C27.722 35.5098 27.5271 35.502 27.3402 35.4543C27.1533 35.4065 26.9787 35.3198 26.8276 35.1997C26.5442 34.9692 26.3606 34.6382 26.3152 34.2757C26.2608 33.9603 26.2916 33.6361 26.4043 33.3366C26.4999 33.0758 26.6753 32.8518 26.9056 32.6965C27.1359 32.5411 27.4093 32.4624 27.687 32.4714C28.4354 32.4756 28.8772 33.009 28.947 33.6163C28.9587 33.7171 28.9629 33.8196 28.9713 33.9296H27.267C27.263 33.9403 27.26 33.9513 27.2577 33.9624C27.2352 34.2319 27.2594 34.5033 27.3291 34.7646C27.4274 35.0872 27.6483 35.2274 27.9717 35.1846C28.1391 35.1614 28.2929 35.0799 28.406 34.9544C28.5135 34.836 28.6042 34.7033 28.7109 34.5672ZM28.0734 33.6776C28.0734 33.6524 28.0734 33.6356 28.0734 33.618C28.0683 33.5063 28.0734 33.3937 28.0557 33.282C28.0413 33.1679 28.0163 33.0554 27.981 32.946C27.9638 32.8862 27.9286 32.8331 27.8802 32.794C27.8318 32.755 27.7726 32.7318 27.7105 32.7276C27.5148 32.7091 27.3888 32.7973 27.3283 33.0031C27.2732 33.2202 27.2481 33.4437 27.2535 33.6676C27.2535 33.6676 27.2586 33.6743 27.2628 33.6785L28.0734 33.6776Z" fill="black"/>
<path d="M44.0049 31.4375V32.5589H44.6341V32.8109H44.0091C44.0091 32.8428 44.0049 32.8663 44.0049 32.8899C44.0049 33.4098 44.0049 33.9306 44.0049 34.4506C44.0081 34.5708 44.0177 34.6908 44.0335 34.8101C44.0402 34.8514 44.0547 34.891 44.0763 34.9269C44.0856 34.9478 44.1002 34.966 44.1187 34.9796C44.1371 34.9932 44.1589 35.0016 44.1816 35.0042C44.2044 35.0067 44.2275 35.0033 44.2485 34.9941C44.2695 34.985 44.2878 34.9705 44.3014 34.9521C44.3473 34.8963 44.381 34.8317 44.4006 34.7622C44.4325 34.6396 44.4476 34.5102 44.4686 34.3876C44.4728 34.3666 44.4728 34.3447 44.4753 34.3187H44.7324C44.7328 34.4029 44.7278 34.4871 44.7172 34.5707C44.6969 34.7178 44.6626 34.8627 44.6148 35.0033C44.5574 35.1622 44.4481 35.2972 44.3044 35.3862C44.1608 35.4752 43.9914 35.5132 43.8235 35.4939C43.7688 35.4909 43.7143 35.4842 43.6605 35.4737C43.5694 35.4584 43.4839 35.4193 43.4128 35.3603C43.3417 35.3013 43.2875 35.2245 43.2556 35.1377C43.1919 34.964 43.1608 34.78 43.1641 34.5951C43.1641 34.0314 43.1641 33.4669 43.1641 32.9025V32.8185H42.8398V32.5665C43.0617 32.4995 43.2567 32.3639 43.3968 32.1792C43.5378 31.9851 43.6376 31.7641 43.6899 31.5299C43.7076 31.4577 43.737 31.435 43.8084 31.4417C43.8739 31.4437 43.9395 31.4423 44.0049 31.4375Z" fill="black"/>
<path d="M25.8021 34.3157H26.0541C26.0541 34.6685 26.0188 35.0087 25.7601 35.2784C25.6794 35.3569 25.5824 35.4168 25.476 35.4537C25.3696 35.4906 25.2563 35.5035 25.1443 35.4917C25.0852 35.4894 25.0264 35.4815 24.9688 35.4682C24.8778 35.4496 24.7933 35.4072 24.724 35.3454C24.6547 35.2836 24.6029 35.2045 24.574 35.1162C24.5089 34.9109 24.4804 34.6956 24.49 34.4804C24.49 33.9537 24.49 33.427 24.49 32.9003V32.8163H24.1641C24.1641 32.7365 24.1641 32.6643 24.1641 32.5929C24.1656 32.5849 24.169 32.5774 24.1742 32.5711C24.1793 32.5648 24.1859 32.5598 24.1935 32.5568C24.6521 32.4014 24.8655 32.0385 24.9957 31.6076C25.0125 31.5538 25.0141 31.479 25.0511 31.4522C25.0881 31.4253 25.1603 31.4438 25.2191 31.4429H25.33V32.5643H25.9591V32.8163H25.3359C25.3359 32.844 25.3308 32.8634 25.3308 32.8827C25.3308 33.4228 25.3308 33.9629 25.3308 34.5022C25.3353 34.6096 25.3457 34.7168 25.3619 34.8231C25.3656 34.8445 25.3718 34.8653 25.3804 34.8852C25.4039 34.944 25.435 34.9978 25.5064 35.0062C25.5397 35.0105 25.5734 35.0034 25.6022 34.9862C25.631 34.969 25.6532 34.9426 25.6651 34.9113C25.7045 34.8209 25.7351 34.7269 25.7567 34.6307C25.7802 34.5266 25.7869 34.4232 25.8021 34.3157Z" fill="black"/>
<path d="M36.1376 25C36.1292 25.21 36.1334 25.42 36.1124 25.6208C36.0427 26.318 35.6807 26.8547 35.1506 27.284C34.8472 27.5322 34.4727 27.6775 34.0813 27.6989C34.0385 27.6989 33.9973 27.6989 33.9528 27.6989C33.7495 26.3978 34.9221 25.0445 36.1376 25Z" fill="black"/>
<path d="M49.6015 35.1556V35.4009H48.055C48.055 35.3278 48.055 35.2555 48.055 35.1841C48.055 35.1707 48.0802 35.1514 48.0979 35.1472C48.281 35.0959 48.3314 35.0413 48.3322 34.8507C48.3322 34.2585 48.3322 33.6654 48.3322 33.0724C48.3322 33.0463 48.3255 33.0203 48.323 32.9943C48.321 32.9533 48.3042 32.9144 48.2755 32.885C48.2469 32.8556 48.2085 32.8377 48.1676 32.8347L48.0391 32.8162V32.5684L49.1042 32.4844V33.1051H49.1185C49.1302 33.085 49.142 33.0657 49.1529 33.0455C49.2275 32.8932 49.3358 32.7599 49.4696 32.6557C49.5571 32.5901 49.6589 32.5462 49.7666 32.5275C49.8744 32.5088 49.985 32.5159 50.0895 32.5482C50.1546 32.5657 50.2156 32.5961 50.2687 32.6376C50.3219 32.679 50.3662 32.7307 50.399 32.7896C50.4318 32.8486 50.4525 32.9134 50.4598 32.9805C50.4671 33.0475 50.4609 33.1153 50.4415 33.1799C50.4206 33.2431 50.3854 33.3006 50.3385 33.3479C50.2916 33.3952 50.2344 33.4309 50.1714 33.4523C50.1084 33.4737 50.0413 33.4802 49.9753 33.4713C49.9093 33.4624 49.8464 33.4382 49.7913 33.4008C49.7439 33.37 49.7075 33.3249 49.6874 33.2721C49.6673 33.2192 49.6646 33.1613 49.6796 33.1068C49.6897 33.0623 49.7023 33.0178 49.7098 32.9724C49.7216 32.8993 49.6821 32.8582 49.6082 32.8632C49.5721 32.8677 49.5374 32.8803 49.5069 32.9001C49.4763 32.9199 49.4507 32.9463 49.4318 32.9775C49.3294 33.1154 49.2603 33.2753 49.2302 33.4445C49.2008 33.5952 49.1831 33.748 49.1773 33.9015C49.1697 34.1997 49.1773 34.4987 49.1773 34.7969C49.1777 34.8409 49.1819 34.8847 49.1899 34.9279C49.1909 34.9595 49.1983 34.9906 49.2117 35.0193C49.2251 35.0479 49.2441 35.0736 49.2676 35.0947C49.2912 35.1158 49.3188 35.1319 49.3487 35.1421C49.3786 35.1523 49.4103 35.1563 49.4419 35.1539C49.4939 35.1581 49.5435 35.1556 49.6015 35.1556Z" fill="black"/>
<path d="M14.6821 32.0251C14.6081 32.0142 14.5535 32.0109 14.5006 31.9974C14.4115 31.9789 14.3318 31.9293 14.2759 31.8574C14.2201 31.7855 14.1916 31.6961 14.1957 31.6051C14.1995 31.5088 14.2369 31.4169 14.3016 31.3453C14.3662 31.2738 14.4539 31.2272 14.5493 31.2137C14.6297 31.1943 14.7136 31.1944 14.794 31.214C14.8743 31.2336 14.9489 31.272 15.0113 31.3263C15.062 31.369 15.1007 31.4243 15.1234 31.4866C15.1462 31.5489 15.1522 31.616 15.141 31.6814C15.1298 31.7468 15.1017 31.8081 15.0595 31.8592C15.0173 31.9104 14.9625 31.9496 14.9005 31.9731C14.8292 31.9963 14.7561 32.0137 14.6821 32.0251Z" fill="black"/>
<defs>
<filter id="filter0_d_4701_18" x="0" y="0" width="70" height="70" filterUnits="userSpaceOnUse" color-interpolation-filters="sRGB">
<feFlood flood-opacity="0" result="BackgroundImageFix"/>
<feColorMatrix in="SourceAlpha" type="matrix" values="0 0 0 0 0 0 0 0 0 0 0 0 0 0 0 0 0 0 127 0" result="hardAlpha"/>
<feOffset dy="4"/>
<feGaussianBlur stdDeviation="5"/>
<feColorMatrix type="matrix" values="0 0 0 0 0 0 0 0 0 0 0 0 0 0 0 0 0 0 0.05 0"/>
<feBlend mode="normal" in2="BackgroundImageFix" result="effect1_dropShadow_4701_18"/>
<feBlend mode="normal" in="SourceGraphic" in2="effect1_dropShadow_4701_18" result="shape"/>
</filter>
</defs>
</svg>
