<svg width="60" height="60" viewBox="0 0 60 60" fill="none" xmlns="http://www.w3.org/2000/svg">
<rect width="60" height="60" rx="30" fill="#000065"/>
<path d="M32.0259 27.5339C32.0287 27.5308 32.0259 27.5278 32.023 27.5278C31.9885 27.4329 31.8738 27.4084 31.759 27.4023C31.7045 27.4023 31.6499 27.3962 31.5925 27.3931H31.5811C31.4605 27.384 31.3429 27.3778 31.2252 27.4054C31.2252 27.4054 31.2224 27.4054 31.2195 27.4084C31.1937 27.4115 31.1707 27.4207 31.1478 27.4299C31.1076 27.4452 31.0674 27.4635 31.0301 27.488H31.0272C30.7719 27.4911 30.5222 27.4941 30.2697 27.4972C29.0013 27.5094 29.0013 27.5094 29.5265 26.2701C29.5695 26.1691 29.6671 26.059 29.558 25.9641C29.5006 25.9182 29.3859 25.9274 29.3026 25.9396C28.7861 26.0192 28.4332 26.3313 28.3126 26.8668C28.2007 27.3625 27.9597 27.5676 27.4776 27.5002C27.2308 27.4635 26.9668 27.4819 26.786 27.7297C26.6397 28.0051 26.8262 28.051 27.0041 28.0786C27.007 28.0786 27.007 28.0786 27.007 28.0786H27.0185C27.2308 28.1061 27.446 28.0847 27.6584 28.0908C27.6957 28.0969 27.7359 28.0969 27.7732 28.1061C27.8219 28.1153 27.865 28.1398 27.8765 28.2224C27.8191 29.1373 27.4661 29.8473 26.7143 30.3583C25.8993 30.9091 25.9309 30.9336 25.4574 30.0584C25.1934 29.5719 24.8778 29.1557 25.5665 28.7212C25.8305 28.5529 25.8333 28.1398 25.5464 27.8674C25.2824 27.6165 25.0184 27.6532 24.7831 27.9164C24.6224 28.0969 24.4789 28.2928 24.3268 28.4825C24.0858 28.8405 24.3211 29.2689 24.1805 29.6422C23.9251 30.2971 23.5004 30.8203 23.0384 31.3069C22.7285 31.6343 22.3841 32.1514 21.902 31.8883C21.4544 31.6404 21.5634 31.0407 21.5921 30.5664C21.638 29.835 21.8446 29.1312 21.9709 28.4121C21.9939 28.2744 22.1603 27.9592 21.8303 27.9898C21.5892 28.0143 21.2305 27.7053 21.0985 28.2591C20.7743 29.6331 20.0799 30.7928 19.1358 31.7812C18.8861 32.0443 18.5877 32.3259 18.2347 32.13C17.8961 31.9434 17.9965 31.5333 18.0195 31.1906C18.0769 30.3552 18.4241 29.5902 18.5102 28.764C18.5418 28.4427 18.5877 28.1734 18.1199 28.1581C17.6924 28.1428 17.6005 28.302 17.6149 28.7151C17.6264 28.9752 17.546 29.2475 17.4858 29.5076C17.2964 30.3522 17.0668 31.1906 17.1845 32.0749C17.2792 32.8032 17.767 33.1092 18.4241 32.9226C18.9779 32.7696 19.3223 32.3626 19.6925 31.9464C20.1229 31.4629 20.2893 30.7775 20.7915 30.3552C20.9379 30.8785 20.7599 31.4232 20.8891 31.9464C21.0871 32.6594 21.4515 32.895 22.0857 32.6992C22.694 32.5095 23.1417 32.0749 23.5119 31.5486C23.8447 31.0804 24.1518 30.5939 24.4904 30.0829C24.5621 30.2022 24.608 30.2787 24.6539 30.3552C25.1877 31.2549 25.1877 31.2549 24.3584 31.7689C24.2493 31.8363 24.1374 31.9005 24.0341 31.974C23.2048 32.5645 23.1847 33.045 23.9624 33.657C24.2952 33.7824 24.6109 33.7304 24.9208 33.5743C25.489 33.4672 25.8678 33.0939 26.1519 32.5829C26.3384 32.2249 26.3326 31.8607 26.1605 31.4997V31.4966C26.2494 31.2059 27.0299 30.5755 27.4087 30.5082C27.2107 31.4017 27.2308 32.2861 27.9999 32.8277C28.591 33.2439 29.2309 32.895 29.7474 32.5064C30.1262 32.2218 30.6169 31.9189 30.4275 31.1539C30.2525 31.3589 30.1377 31.5241 29.9942 31.6527C29.8278 31.7965 29.6441 31.925 29.4547 32.0321C28.8091 32.384 28.393 32.1453 28.2811 31.3895C28.2409 31.1172 28.261 30.8571 28.2725 30.5847C28.304 29.8014 28.6283 29.0945 28.7517 28.3387C28.7976 28.1857 28.8751 28.1245 28.9669 28.1031C29.0817 28.0694 29.2165 28.1 29.3371 28.0908C29.3457 28.0908 29.3543 28.0908 29.3629 28.0878C29.3686 28.0908 29.3744 28.0908 29.3772 28.0878C29.6097 28.0725 29.8392 28.0755 30.0717 28.0847H30.0832C30.4447 28.0969 30.8063 28.1153 31.165 28.0786H31.208C31.3687 28.0633 31.5265 28.0388 31.6872 27.996C31.8537 27.9745 31.9656 27.8797 32.0201 27.7114V27.7083C32.0402 27.6349 32.0402 27.5767 32.0259 27.5339ZM24.5994 33.1949C24.3871 33.1827 24.1432 33.1704 24.1345 32.843C24.1259 32.5584 24.9438 31.772 25.268 31.7812C25.5779 31.7904 25.4402 32.0872 25.4976 32.2218C25.489 32.8124 25.0987 33.2286 24.5994 33.1949Z" fill="#FEFE00"/>
<path d="M11.9193 35.1794C11.6036 35.1825 11.3683 34.9897 11.1531 34.7908C10.5878 34.2737 10.7083 33.6525 11.4745 33.1843C11.6496 33.8881 11.9336 34.4603 12.7314 34.5124C13.6009 34.5705 14.2264 34.2523 14.6109 33.3832C15.1189 32.2357 15.2824 30.9903 15.5378 29.7724C15.8276 28.3862 16.0601 26.9817 16.3183 25.5863C16.3786 25.262 16.281 25.112 15.9568 25.1885C15.6182 25.2712 15.2738 25.3293 14.9524 25.1335C14.7745 25.0264 14.6253 24.8611 14.6712 24.6224C14.7257 24.3287 14.9553 24.4664 15.1131 24.4694C15.8649 24.4909 16.5852 24.2736 17.3112 24.1206C17.5982 24.0625 17.8794 24.0135 18.1692 24.0043C19.1133 23.9707 19.2912 24.1145 19.5581 25.1396C19.0932 25.0049 18.6599 24.8305 18.1893 24.8397C17.7302 24.8489 17.5063 25.0539 17.4231 25.5313C17.1362 27.1592 16.8693 28.7902 16.5278 30.4058C16.1662 32.1164 15.6325 33.7474 14.1461 34.7725C13.8735 34.9591 13.6066 35.1611 13.2651 35.1794C12.8117 35.3447 12.3641 35.3477 11.9193 35.1794Z" fill="#FEFE00"/>
<path d="M40.2796 31.6794C40.4976 32.169 40.799 32.3006 41.2724 32.0925C41.6856 31.912 41.9984 31.5968 42.2969 31.1959C42.535 31.5631 42.3485 31.8569 42.1563 32.068C41.5967 32.6831 40.8994 33.1543 40.093 32.934C39.3871 32.7412 39.3355 31.9487 39.2523 31.2327C39.0313 31.3061 38.928 31.4897 38.7989 31.6335C38.2737 32.2149 37.7572 32.7688 36.9509 32.9432C36.2966 33.084 35.76 32.7565 35.6883 32.0344C35.6108 31.248 35.9178 30.5136 35.9637 29.7455C35.9752 29.5527 36.0297 29.3446 35.9752 29.1733C35.8403 28.7357 36.0613 28.647 36.3856 28.5919C36.7701 28.5276 36.8648 28.7724 36.8791 29.0968C36.9193 29.9016 36.6295 30.6513 36.529 31.4316C36.486 31.7529 36.4343 32.0619 36.7156 32.2669C37.0083 32.4842 37.2809 32.2884 37.5162 32.1201C38.8247 31.1837 39.6282 29.8985 39.8319 28.2124C39.7917 28.1635 39.7458 28.1298 39.6913 28.1053C39.456 28.0686 39.2207 28.1053 38.9883 28.0747C38.7816 28.0472 38.6267 27.9646 38.7702 27.6984C38.9136 27.5148 39.1116 27.4658 39.3096 27.5025C39.8807 27.6096 40.116 27.3036 40.2939 26.7681C40.5292 26.049 40.8592 25.8715 41.568 25.948C41.393 26.352 41.2323 26.7498 41.0543 27.1353C40.9252 27.4168 41.0027 27.5117 41.281 27.5025C42.0214 27.478 42.7646 27.5668 43.5021 27.4168C43.6599 27.3862 43.9038 27.2455 43.9842 27.4658C44.076 27.7167 43.8694 27.8789 43.6599 27.9829C43.2323 28.191 42.7818 28.0533 42.3428 28.0809C41.8636 28.1084 41.3786 28.0656 40.8994 28.1023C40.8391 28.1237 40.7846 28.1574 40.7416 28.2063C40.489 28.8703 40.3369 29.5619 40.2796 30.2749C40.2509 30.3147 40.225 30.3606 40.2021 30.4034C40.1648 30.7859 40.1676 31.1684 40.1992 31.5478C40.2193 31.5999 40.2451 31.6427 40.2796 31.6794Z" fill="#FEFE00"/>
<path d="M48.9105 29.1137C48.813 29.0586 48.7125 28.9852 48.6178 29.0984C48.5203 29.2116 48.437 29.3371 48.3538 29.4625C47.6508 30.5305 46.833 31.4699 45.7167 32.0482C45.1944 32.3206 44.6349 32.5287 44.0638 32.1615C43.7367 31.9534 43.5903 31.6107 43.6018 31.2343C43.619 30.812 44.0007 31.0415 44.2044 30.9466C44.4139 30.8487 44.6636 30.8518 44.8874 30.7783C45.5646 30.558 46.1414 30.1786 46.4915 29.4962C46.8272 28.8322 46.635 28.2844 45.9635 27.957C45.9176 27.9325 45.8688 27.9142 45.8229 27.8989C45.7683 27.8805 45.7167 27.8683 45.6622 27.8622C45.6564 27.8622 45.6478 27.8622 45.6421 27.8591C45.6134 27.8591 45.5818 27.856 45.5531 27.853C45.5388 27.853 45.5244 27.8499 45.513 27.8499C45.3408 27.8407 45.1629 27.8622 44.9878 27.8652C44.9878 27.8652 44.985 27.8652 44.9821 27.8652C44.9333 27.8713 44.8816 27.8713 44.8329 27.8683C44.7697 27.8805 44.7123 27.9081 44.6607 27.9509C43.2087 28.618 42.5401 29.8053 42.6778 31.4668C42.7352 32.1645 43.1398 32.6817 43.7683 32.8653C44.1987 32.9265 44.6291 32.9295 45.0596 32.8622C46.8616 32.3298 48.0296 30.9956 48.9507 29.3524C48.9995 29.2636 49.0224 29.1749 48.9105 29.1137ZM43.6621 30.2826C43.8629 29.4136 44.2159 28.6639 45.0481 28.2997C45.4498 28.1253 45.8171 28.3977 45.8171 28.8567C45.8143 29.6798 44.523 30.7386 43.7912 30.5274C43.6391 30.4815 43.6363 30.3958 43.6621 30.2826Z" fill="#FEFE00"/>
<path d="M31.5766 28.4412C31.5996 28.4197 31.6254 28.4136 31.6541 28.4289C32.2711 28.3402 32.2768 28.3402 32.2711 28.9522C32.2682 29.1786 32.317 29.4142 32.2251 29.6346C32.2223 29.7723 32.2223 29.913 32.2194 30.0507C32.1018 30.3567 32.2022 30.6872 32.1161 30.9963C32.1333 31.1921 32.4031 31.339 32.2194 31.5777C32.1104 31.899 31.9583 32.2111 31.9009 32.5416C31.8263 32.9791 31.459 32.9394 31.2466 32.9608C30.9826 32.9883 30.9195 32.6334 30.9539 32.3886C31.0343 31.8041 31.1548 31.2258 31.2552 30.6444C31.2954 30.4179 31.327 30.1915 31.3614 29.965C31.3872 29.9222 31.4159 29.8794 31.4389 29.8365C31.5393 29.3775 31.327 28.8849 31.5766 28.4412Z" fill="#FEFE00"/>
<path d="M38.7663 25.8922C38.2871 26.7857 37.5639 27.4069 36.7461 27.9087C36.3501 28.1535 36.1205 27.973 36.1291 27.465C36.132 27.2539 36.1521 27.0397 36.1636 26.8286C36.33 26.6113 36.6112 26.7306 36.8035 26.5899C37.4405 26.394 38.0173 26.0758 38.5482 25.6566C38.7892 25.5525 38.8351 25.6627 38.7663 25.8922Z" fill="#FEFE00"/>
<path d="M33.0865 29.4471C33.3505 28.933 33.7523 28.5567 34.1597 28.1772C34.5242 27.8376 34.9546 27.9477 35.3477 27.9936C35.5658 28.0181 35.7007 28.2996 35.5285 28.5658C35.3277 28.8718 35.1784 29.288 34.6935 28.8933C34.4783 28.7188 34.197 28.8596 34.0019 29.0524C33.7379 29.3064 33.4911 29.5818 33.2357 29.848C32.9402 29.8204 33.0377 29.6215 33.0865 29.4471Z" fill="#FEFE00"/>
<path d="M33.0878 29.4473C33.1136 29.5911 33.0821 29.7594 33.237 29.8481C32.9013 30.4234 32.5627 31.0017 32.2269 31.577C32.2872 31.3506 32.0662 31.271 32.0117 31.1058C32.1064 30.9099 32.115 30.656 32.3388 30.5489C32.5311 30.1388 32.8066 29.79 33.0878 29.4473Z" fill="#FEFE00"/>
<path d="M28.7495 28.338C28.695 28.0442 28.8442 27.9677 29.0852 27.9708C29.9519 27.983 30.8185 27.9861 31.6851 27.9953C31.6822 28.0228 31.6765 28.0534 31.665 28.0779C31.0308 28.2217 30.3852 28.1024 29.7481 28.1452C29.4497 28.1666 29.1426 28.0779 28.8499 28.2064C28.8184 28.2523 28.7839 28.2952 28.7495 28.338Z" fill="#FEFE00"/>
<path d="M40.7383 28.2101C40.7383 28.1734 40.7411 28.1336 40.7411 28.0969C41.6996 27.9836 42.6551 28.0081 43.6136 28.0846C43.539 28.3294 43.3438 28.1979 43.2176 28.2009C42.394 28.2193 41.5647 28.2101 40.7383 28.2101Z" fill="#FEFE00"/>
<path d="M43.6146 28.0832C42.6562 28.0862 41.7006 28.0924 40.7422 28.0954C40.8197 27.8996 40.9861 27.97 41.1152 27.9669C41.9618 27.9669 42.8111 27.9761 43.6577 27.9822C43.6462 28.0189 43.6318 28.0526 43.6146 28.0832Z" fill="#FEFE00"/>
<path d="M28.8555 28.2075C29.019 27.975 29.2515 28.0974 29.4495 28.0912C30.1898 28.0729 30.9302 28.079 31.6705 28.0759C31.6648 28.3636 31.4668 28.1953 31.3721 28.1983C30.5342 28.2136 29.6934 28.2075 28.8555 28.2075Z" fill="#FEFE00"/>
<path d="M26.1523 32.5843C26.2126 32.2233 26.2155 31.8591 26.161 31.498C26.4393 31.801 26.4336 32.2845 26.1523 32.5843Z" fill="#FEFE00"/>
<path d="M26.7866 27.7285C26.7665 27.9978 26.9387 27.9641 27.1051 27.9733C27.3663 27.9886 27.6417 27.8785 27.8885 28.0498C27.4839 28.2885 27.0248 28.0223 26.6144 28.1998C26.5427 27.9886 26.5484 27.8111 26.7866 27.7285Z" fill="#FEFE00"/>
<path d="M32.2312 29.6356C32.2312 29.4458 32.2054 29.2531 32.2341 29.0695C32.3116 28.5676 32.1222 28.3657 31.6602 28.4299C32.2972 28.231 32.4034 28.3075 32.3632 28.9838C32.3489 29.2041 32.389 29.4458 32.2312 29.6356Z" fill="#FEFE00"/>
<path d="M31.0781 27.4096C31.2388 27.2566 32.0882 27.1924 32.1743 27.3454C32.246 27.4739 32.2805 27.6452 32.0739 27.7126C32.0767 27.4831 31.9476 27.4402 31.7639 27.4402C31.5344 27.4433 31.3019 27.4861 31.0781 27.4096Z" fill="#FEFE00"/>
<path d="M38.771 27.7012C38.7251 28.0164 38.9374 27.946 39.1067 27.9674C39.3535 27.998 39.629 27.8419 39.8499 28.0837C39.4281 28.2397 38.9833 28.0653 38.5586 28.1785C38.507 27.9582 38.5845 27.8022 38.771 27.7012Z" fill="#FEFE00"/>
<path d="M20.7898 30.3535C21.0165 30.8707 20.8558 31.4123 20.8874 31.9447C20.6865 31.4245 20.7554 30.889 20.7898 30.3535Z" fill="#FEFE00"/>
<path d="M32.3389 30.5496C32.2671 30.7607 32.1839 30.9627 32.0117 31.1065C32.0117 30.7393 32.0404 30.3782 32.2269 30.0508C32.27 30.2191 32.1925 30.4119 32.3389 30.5496Z" fill="#FEFE00"/>
<path d="M31.5831 28.4408C31.5774 28.9212 31.5688 29.4017 31.5602 29.8821C31.5602 29.8974 31.5458 29.9249 31.5401 29.9249C31.5114 29.9188 31.4856 29.9066 31.4569 29.8974C31.388 29.4078 31.3794 28.9212 31.4598 28.4316C31.5028 28.4378 31.543 28.4378 31.5831 28.4408Z" fill="#FEFE00"/>
<path d="M44.7251 27.9762C44.6993 27.9762 44.6763 27.9671 44.6562 27.9518C45.0609 27.554 45.497 27.6947 45.9332 27.8691C45.5372 28.0007 45.1182 27.811 44.7251 27.9762Z" fill="#FEFE00"/>
<path d="M31.4601 28.4336C31.4601 28.9232 31.4573 29.4097 31.4573 29.8993C31.4314 29.9269 31.4027 29.9483 31.3712 29.9636C31.397 29.4526 31.2564 28.9324 31.4601 28.4336Z" fill="#FEFE00"/>
<path d="M23.9648 33.6566C24.292 33.7515 24.599 33.5403 24.9204 33.574C24.9921 33.7117 24.952 33.7974 24.8056 33.776C24.5244 33.7331 24.2174 33.9106 23.9648 33.6566Z" fill="#FEFE00"/>
<path d="M40.2776 31.6797C40.2489 31.6674 40.2202 31.6552 40.1915 31.643C40.0796 31.2084 40.0853 30.7739 40.1886 30.3363C40.2173 30.318 40.246 30.2996 40.2747 30.2812C40.2747 30.7464 40.2776 31.2115 40.2776 31.6797Z" fill="#FEFE00"/>
<path d="M13.2337 35.2638C12.8233 35.5086 12.4072 35.4719 11.9883 35.2883C12.4015 35.1904 12.8176 35.2302 13.2337 35.2638Z" fill="#FEFE00"/>
<path d="M38.5547 28.1786C38.9765 28.0195 39.4127 28.0776 39.846 28.0837C39.8431 28.1266 39.8374 28.1694 39.8345 28.2122C39.4069 28.2031 38.9794 28.1908 38.5547 28.1786Z" fill="#FEFE00"/>
<path d="M31.079 27.4113C31.3401 27.3991 31.6041 27.3991 31.8653 27.3746C32.158 27.344 32.1264 27.5184 32.0747 27.7173L32.046 27.7204L32.0202 27.7112C31.7677 27.2461 31.3401 27.6531 31.0273 27.4878C31.0388 27.4572 31.056 27.4327 31.079 27.4113Z" fill="#FEFE00"/>
<path d="M26.6133 28.2027C27.0179 27.9671 27.4655 28.1262 27.8874 28.0527C27.939 28.1139 27.962 28.1751 27.873 28.2241C27.4541 28.2149 27.0351 28.2088 26.6133 28.2027Z" fill="#FEFE00"/>
<path d="M13.2312 35.2612C12.8151 35.2704 12.4019 35.2765 11.9858 35.2857C11.9628 35.252 11.9399 35.2153 11.9141 35.1816C12.3617 35.1847 12.8065 35.1847 13.2541 35.1878C13.2513 35.2122 13.2427 35.2367 13.2312 35.2612Z" fill="#FEFE00"/>
<path d="M43.7656 32.8644C44.1961 32.8644 44.6265 32.8644 45.0598 32.8613C44.6265 33.0541 44.1961 33.0633 43.7656 32.8644Z" fill="#FEFE00"/>
<path d="M38.7717 25.8909C38.7689 25.7379 38.7 25.6522 38.5508 25.6553C38.6024 25.4074 38.789 25.3217 38.9324 25.4747C39.0616 25.6063 39.0185 25.8328 38.7717 25.8909Z" fill="#FEFE00"/>
<path d="M24.3256 28.4805C24.1678 28.8507 24.4088 29.2791 24.1764 29.6402C24.2424 29.2577 23.9755 28.8232 24.3256 28.4805Z" fill="#FEFE00"/>
<path d="M44.7266 27.9758C45.114 27.7249 45.53 27.8932 45.9347 27.8687C45.9461 27.8993 45.9547 27.9268 45.9605 27.9574C45.5501 27.9636 45.1369 27.9697 44.7266 27.9758Z" fill="#FEFE00"/>
<path d="M36.804 26.5867C36.6375 26.804 36.4022 26.8193 36.1641 26.8254C36.2616 26.4001 36.583 26.6449 36.804 26.5867Z" fill="#FEFE00"/>
<path d="M40.1861 30.3379C40.1861 30.7724 40.189 31.2069 40.189 31.6445C39.9881 31.2069 39.991 30.7724 40.1861 30.3379Z" fill="#FEFE00"/>
</svg>
