<svg width="67" height="70" viewBox="0 0 67 70" fill="none" xmlns="http://www.w3.org/2000/svg">
<g filter="url(#filter0_d_4701_19)">
<circle cx="32" cy="31" r="25" fill="white"/>
</g>
<path d="M32.3281 30.6718H32.7813V29.7949C32.7813 29.2378 32.8551 28.8383 33.0263 28.6143C33.377 28.1553 34.4687 28.0848 34.7045 28.1696V29.0171C34.7045 29.0171 34.196 29.0255 33.9938 29.3695C33.9216 29.5128 33.8883 29.6725 33.8973 29.8327L33.8922 30.2011V30.6718H34.6567V31.3893H33.8922V36.3896H32.7813V31.3893H32.3281V30.6718Z" fill="#C1C1CE"/>
<path d="M38.8275 33.558C38.8275 35.4438 38.2077 36.3864 36.968 36.3858C35.7284 36.3852 35.1088 35.4284 35.1094 33.5152C35.1094 31.5941 35.7272 30.6336 36.963 30.6336C37.2496 30.6252 37.5344 30.6826 37.7954 30.8014C38.0353 30.9212 38.2365 31.1062 38.3761 31.3351C38.5436 31.6155 38.6587 31.924 38.7159 32.2456C38.7966 32.6783 38.8339 33.1179 38.8275 33.558ZM37.6947 33.5311C37.6947 32.7983 37.6432 32.2884 37.5403 32.0014C37.4371 31.7111 37.2542 31.5651 36.9915 31.5651C36.7289 31.5651 36.5468 31.7094 36.436 31.9964C36.3253 32.2833 36.2816 32.7843 36.2816 33.4992C36.2816 34.2142 36.3337 34.7126 36.436 34.9962C36.5384 35.2798 36.7322 35.4275 36.9915 35.4275C37.2508 35.4275 37.4321 35.2857 37.5344 35.0021C37.6418 34.7364 37.6953 34.246 37.6947 33.5311Z" fill="#C1C1CE"/>
<path d="M39.5117 31.6896C39.5119 31.4279 39.6129 31.1764 39.7937 30.9873C39.9745 30.7982 40.2212 30.6861 40.4826 30.6742C40.9861 30.6516 41.5382 30.6289 41.7782 30.6289C42.2503 30.6289 42.5879 30.8093 42.791 31.1701C42.9029 31.3743 42.9588 31.7698 42.9588 32.3567V36.3844H41.8848L41.8797 32.6008C41.8797 32.2182 41.8327 31.9466 41.7387 31.7861C41.6448 31.6255 41.4837 31.5452 41.2554 31.5452C41.1479 31.5419 41.0411 31.5634 40.9433 31.6082C40.8558 31.6532 40.7842 31.7237 40.7377 31.8104C40.6788 31.9243 40.6399 32.0475 40.6227 32.1746C40.5959 32.3574 40.5835 32.542 40.5858 32.7267V36.3886H39.5117V31.6896Z" fill="#C1C1CE"/>
<path d="M47.5742 35.5776C47.3065 36.2422 46.605 36.4956 45.8212 36.4956C45.476 36.4912 45.1345 36.4226 44.8143 36.2934C44.5793 36.1826 44.3578 35.9343 44.2043 35.701C44.0355 35.4291 43.9202 35.1275 43.8644 34.8124C43.7856 34.3896 43.7487 33.9602 43.7545 33.5302C43.7545 32.5467 43.9053 31.8178 44.2068 31.3434C44.5083 30.869 44.9746 30.6321 45.6056 30.6327C46.8307 30.6327 47.4435 31.6167 47.4441 33.5847V33.7139L44.8605 34.3341C44.8915 34.9139 45.3161 35.6129 45.8363 35.6129C46.172 35.6129 46.5672 35.508 46.6646 35.1421C46.6839 35.0683 46.939 35.1102 47.1764 35.2034C47.4139 35.2965 47.6279 35.4434 47.5742 35.5776ZM46.2878 32.9705C46.2408 32.3848 46.1678 32.0005 46.0688 31.8175C46.0267 31.7224 45.9568 31.6421 45.8683 31.5873C45.7798 31.5325 45.6768 31.5057 45.5729 31.5104C45.4686 31.5045 45.365 31.5308 45.2761 31.5857C45.1872 31.6406 45.1174 31.7216 45.0761 31.8175C44.9771 32.0005 44.8571 32.5795 44.8571 33.3842L46.2878 32.9705Z" fill="#C1C1CE"/>
<path d="M50.6252 30.8777V31.8578C50.3933 31.6778 50.109 31.5782 49.8154 31.5742C49.7247 31.5732 49.6347 31.5897 49.5503 31.6229C49.472 31.6539 49.4003 31.6995 49.3388 31.7571C49.2777 31.8137 49.2289 31.8823 49.1953 31.9585C49.1599 32.0376 49.1422 32.1235 49.1433 32.2102C49.1433 32.4793 49.3892 32.7993 49.8809 33.1702C50.0549 33.3015 50.2206 33.4436 50.3768 33.5956C50.4929 33.7061 50.5946 33.8307 50.6797 33.9665C50.8319 34.2293 50.9064 34.5299 50.8946 34.8333C50.8946 35.3368 50.746 35.7424 50.449 36.0501C50.1519 36.3577 49.7578 36.5063 49.2667 36.4956C48.9409 36.489 48.6226 36.397 48.3436 36.2288V35.2218C48.6479 35.4456 48.9363 35.5575 49.2088 35.5575C49.6899 35.5575 49.9304 35.3231 49.9304 34.8543C49.9342 34.6932 49.8879 34.5348 49.7978 34.4012C49.7424 34.3223 49.6779 34.2502 49.6057 34.1864C49.5167 34.1025 49.4085 34.0127 49.2801 33.9103C48.8359 33.5691 48.5349 33.2818 48.3772 33.0485C48.2172 32.7883 48.1367 32.487 48.1456 32.1817C48.138 31.9764 48.1715 31.7717 48.2443 31.5796C48.3171 31.3874 48.4276 31.2119 48.5694 31.0632C48.8563 30.7762 49.2292 30.6327 49.6879 30.6327C50.0159 30.6351 50.338 30.7193 50.6252 30.8777Z" fill="#C1C1CE"/>
<path d="M51.8164 30.3425C51.8967 30.3282 51.9782 30.3215 52.0598 30.3224C52.161 30.312 52.2624 30.3405 52.3434 30.4021C52.3688 30.4259 52.3888 30.4548 52.4021 30.4869C52.4154 30.519 52.4217 30.5536 52.4206 30.5884C52.4216 30.6448 52.4041 30.6999 52.3707 30.7454C52.3374 30.7909 52.29 30.8242 52.236 30.8401C52.275 30.8576 52.3088 30.885 52.334 30.9196C52.3592 30.9542 52.3748 30.9948 52.3795 31.0373C52.3966 31.1292 52.4219 31.2193 52.455 31.3067H52.3241C52.2948 31.2309 52.2729 31.1525 52.2586 31.0726C52.2293 30.9375 52.1747 30.8863 52.0631 30.8821H51.9431V31.3067H51.8164V30.3425ZM51.9431 30.789H52.0732C52.2074 30.789 52.2939 30.7143 52.2939 30.6027C52.2939 30.476 52.2024 30.4206 52.0681 30.4197C52.0261 30.4186 51.9842 30.4225 51.9431 30.4315V30.789Z" fill="#C1C1CE"/>
<path d="M52.1365 29.9922C51.9737 29.992 51.8144 30.0402 51.679 30.1305C51.5435 30.2209 51.4378 30.3494 51.3754 30.4998C51.313 30.6502 51.2965 30.8157 51.3282 30.9754C51.3599 31.1352 51.4382 31.2819 51.5533 31.3971C51.6684 31.5124 51.8151 31.5908 51.9748 31.6227C52.1345 31.6545 52.3 31.6382 52.4505 31.576C52.601 31.5137 52.7296 31.4082 52.8201 31.2728C52.9106 31.1374 52.9589 30.9782 52.9589 30.8154C52.9589 30.5972 52.8722 30.3879 52.718 30.2336C52.5639 30.0792 52.3547 29.9924 52.1365 29.9922ZM52.1365 31.5345C51.9943 31.5345 51.8553 31.4923 51.737 31.4133C51.6187 31.3343 51.5266 31.222 51.4721 31.0906C51.4177 30.9592 51.4035 30.8146 51.4312 30.6751C51.459 30.5356 51.5274 30.4074 51.628 30.3069C51.7286 30.2063 51.8567 30.1378 51.9962 30.1101C52.1357 30.0823 52.2803 30.0966 52.4117 30.151C52.5431 30.2054 52.6554 30.2976 52.7344 30.4158C52.8135 30.5341 52.8556 30.6731 52.8556 30.8154C52.8554 31.006 52.7796 31.1888 52.6448 31.3236C52.51 31.4584 52.3272 31.5343 52.1365 31.5345Z" fill="#C1C1CE"/>
<path d="M16.4353 31.5762C16.1651 31.5762 15.9724 31.7216 15.8572 32.0125C15.7419 32.3034 15.6882 32.8111 15.6961 33.5355C15.6961 34.2588 15.7498 34.7646 15.8572 35.0527C15.9646 35.3408 16.1573 35.4862 16.4353 35.489C16.7055 35.489 16.8952 35.3455 17.0026 35.0577C17.1145 34.7886 17.1704 34.2921 17.1704 33.5682C17.1704 32.8259 17.1167 32.3093 17.0093 32.0184C16.9019 31.7275 16.7106 31.5801 16.4353 31.5762Z" fill="#F31B00"/>
<path d="M24.4455 34.5439C24.4287 35.5038 25.5062 35.4871 25.5062 35.4871V33.3809C25.5062 33.3809 24.4623 33.5864 24.4455 34.5439Z" fill="#F31B00"/>
<path d="M32.0956 34.4154L31.7868 28.9065C31.7636 28.4871 31.6555 28.0768 31.4691 27.7003C31.2827 27.3239 31.0218 26.9892 30.7023 26.7166C30.3828 26.4439 30.0112 26.2389 29.6102 26.1139C29.2091 25.989 28.7869 25.9468 28.3691 25.9897L27.9621 26.0317V22.4931C27.9648 22.4266 27.9541 22.3601 27.9305 22.2978C27.9069 22.2355 27.871 22.1786 27.8249 22.1306C27.7788 22.0825 27.7234 22.0442 27.6621 22.0181C27.6008 21.992 27.5349 21.9785 27.4683 21.9785C27.4016 21.9785 27.3357 21.992 27.2744 22.0181C27.2132 22.0442 27.1578 22.0825 27.1117 22.1306C27.0655 22.1786 27.0296 22.2355 27.006 22.2978C26.9824 22.3601 26.9717 22.4266 26.9744 22.4931V26.1341L20.3068 26.8221V32.9729L21.37 30.7073H22.929L21.7333 32.9729L22.929 36.4578H21.3121L20.3051 33.1189V36.4578H18.9281V26.9665L13.3312 27.5455C12.9875 27.5814 12.6543 27.6854 12.3513 27.8514C12.0482 28.0175 11.7813 28.2423 11.5661 28.5126C11.3508 28.783 11.1917 29.0936 11.0978 29.4261C11.0039 29.7587 10.9773 30.1067 11.0194 30.4497L11.9265 37.7861C11.9683 38.1291 12.0803 38.4598 12.2554 38.7577C12.4306 39.0555 12.6652 39.3141 12.9446 39.5174C13.2241 39.7206 13.5424 39.8642 13.8797 39.9391C14.217 40.014 14.5662 40.0186 14.9054 39.9527L28.4396 37.3514L28.6426 36.7028L27.4821 30.6318H28.8591L29.5103 34.1225L30.3704 30.636H31.6072L29.7318 37.1039L30.0498 37.0426C30.6514 36.9273 31.1906 36.5972 31.567 36.1139C31.9433 35.6305 32.1312 35.0269 32.0956 34.4154ZM16.4082 36.4595C15.116 36.4595 14.4696 35.49 14.469 33.5511C14.4685 31.6121 15.1118 30.639 16.399 30.6318C16.6976 30.6243 16.9941 30.6839 17.2666 30.8063C17.518 30.9249 17.7307 31.1123 17.88 31.3467C18.0542 31.6299 18.1745 31.9428 18.235 32.2697C18.3182 32.7066 18.357 33.1508 18.3508 33.5955C18.348 35.5048 17.7005 36.4595 16.4082 36.4595ZM26.8133 36.0911L26.4903 36.2119C26.2739 36.2941 26.0486 36.3504 25.819 36.3797C25.4422 36.4297 25.0628 36.4578 24.6828 36.4637C23.7522 36.4637 23.2773 35.6245 23.2773 34.7686C23.2773 33.3421 23.743 32.4376 25.5186 32.4493V32.3276C25.5186 31.8401 25.3835 31.58 24.6794 31.58C24.4101 31.58 24.2481 31.627 23.8034 31.8678L23.6129 31.1604C24.0416 30.818 24.5747 30.6329 25.1233 30.636C26.528 30.636 26.8704 31.5237 26.8704 32.7069C26.8712 32.7027 26.8628 34.3642 26.815 36.0911H26.8133Z" fill="#F31B00"/>
<defs>
<filter id="filter0_d_4701_19" x="-3" y="0" width="70" height="70" filterUnits="userSpaceOnUse" color-interpolation-filters="sRGB">
<feFlood flood-opacity="0" result="BackgroundImageFix"/>
<feColorMatrix in="SourceAlpha" type="matrix" values="0 0 0 0 0 0 0 0 0 0 0 0 0 0 0 0 0 0 127 0" result="hardAlpha"/>
<feOffset dy="4"/>
<feGaussianBlur stdDeviation="5"/>
<feColorMatrix type="matrix" values="0 0 0 0 0 0 0 0 0 0 0 0 0 0 0 0 0 0 0.05 0"/>
<feBlend mode="normal" in2="BackgroundImageFix" result="effect1_dropShadow_4701_19"/>
<feBlend mode="normal" in="SourceGraphic" in2="effect1_dropShadow_4701_19" result="shape"/>
</filter>
</defs>
</svg>
