<svg width="67" height="70" viewBox="0 0 67 70" fill="none" xmlns="http://www.w3.org/2000/svg">
<g filter="url(#filter0_d_4713_16)">
<circle cx="32" cy="31" r="25" fill="white"/>
</g>
<path d="M21.7541 16.504H24.7421C25.2861 16.504 25.7341 16.58 26.0861 16.732C26.4381 16.876 26.7141 17.064 26.9141 17.296C27.1221 17.52 27.2661 17.776 27.3461 18.064C27.4261 18.344 27.4661 18.616 27.4661 18.88C27.4661 19.144 27.4261 19.42 27.3461 19.708C27.2661 19.988 27.1221 20.244 26.9141 20.476C26.7141 20.7 26.4381 20.888 26.0861 21.04C25.7341 21.184 25.2861 21.256 24.7421 21.256H22.9061V25H21.7541V16.504ZM22.9061 20.248H24.4181C24.6421 20.248 24.8621 20.232 25.0781 20.2C25.3021 20.16 25.4981 20.092 25.6661 19.996C25.8421 19.9 25.9821 19.764 26.0861 19.588C26.1901 19.404 26.2421 19.168 26.2421 18.88C26.2421 18.592 26.1901 18.36 26.0861 18.184C25.9821 18 25.8421 17.86 25.6661 17.764C25.4981 17.668 25.3021 17.604 25.0781 17.572C24.8621 17.532 24.6421 17.512 24.4181 17.512H22.9061V20.248ZM28.6154 20.008C28.9194 19.728 29.2714 19.52 29.6714 19.384C30.0714 19.24 30.4714 19.168 30.8714 19.168C31.2874 19.168 31.6434 19.22 31.9394 19.324C32.2434 19.428 32.4914 19.568 32.6834 19.744C32.8754 19.92 33.0154 20.124 33.1034 20.356C33.1994 20.58 33.2474 20.816 33.2474 21.064V23.968C33.2474 24.168 33.2514 24.352 33.2594 24.52C33.2674 24.688 33.2794 24.848 33.2954 25H32.3354C32.3114 24.712 32.2994 24.424 32.2994 24.136H32.2754C32.0354 24.504 31.7514 24.764 31.4234 24.916C31.0954 25.068 30.7154 25.144 30.2834 25.144C30.0194 25.144 29.7674 25.108 29.5274 25.036C29.2874 24.964 29.0754 24.856 28.8914 24.712C28.7154 24.568 28.5754 24.392 28.4714 24.184C28.3674 23.968 28.3154 23.72 28.3154 23.44C28.3154 23.072 28.3954 22.764 28.5554 22.516C28.7234 22.268 28.9474 22.068 29.2274 21.916C29.5154 21.756 29.8474 21.644 30.2234 21.58C30.6074 21.508 31.0154 21.472 31.4474 21.472H32.2394V21.232C32.2394 21.088 32.2114 20.944 32.1554 20.8C32.0994 20.656 32.0154 20.528 31.9034 20.416C31.7914 20.296 31.6514 20.204 31.4834 20.14C31.3154 20.068 31.1154 20.032 30.8834 20.032C30.6754 20.032 30.4914 20.052 30.3314 20.092C30.1794 20.132 30.0394 20.184 29.9114 20.248C29.7834 20.304 29.6674 20.372 29.5634 20.452C29.4594 20.532 29.3594 20.608 29.2634 20.68L28.6154 20.008ZM31.6634 22.264C31.4074 22.264 31.1434 22.28 30.8714 22.312C30.6074 22.336 30.3634 22.388 30.1394 22.468C29.9234 22.548 29.7434 22.66 29.5994 22.804C29.4634 22.948 29.3954 23.132 29.3954 23.356C29.3954 23.684 29.5034 23.92 29.7194 24.064C29.9434 24.208 30.2434 24.28 30.6194 24.28C30.9154 24.28 31.1674 24.232 31.3754 24.136C31.5834 24.032 31.7514 23.9 31.8794 23.74C32.0074 23.58 32.0994 23.404 32.1554 23.212C32.2114 23.012 32.2394 22.816 32.2394 22.624V22.264H31.6634ZM34.13 19.312H35.378L37.07 23.752H37.094L38.702 19.312H39.866L37.166 26.224C37.07 26.472 36.97 26.696 36.866 26.896C36.762 27.104 36.638 27.28 36.494 27.424C36.35 27.568 36.174 27.68 35.966 27.76C35.766 27.84 35.518 27.88 35.222 27.88C35.062 27.88 34.898 27.868 34.73 27.844C34.57 27.828 34.414 27.788 34.262 27.724L34.394 26.74C34.61 26.828 34.826 26.872 35.042 26.872C35.21 26.872 35.35 26.848 35.462 26.8C35.582 26.76 35.682 26.696 35.762 26.608C35.85 26.528 35.922 26.432 35.978 26.32C36.034 26.208 36.09 26.08 36.146 25.936L36.494 25.036L34.13 19.312Z" fill="#C1C1CE"/>
<path d="M22.0263 42.012H17.7003V40.248L21.7463 34.088H24.0423V40.248H25.3163V42.012H24.0423V44H22.0263V42.012ZM22.0263 36.832H21.9983L19.8003 40.248H22.0263V36.832ZM26.1114 39.044C26.1114 38.456 26.1627 37.8587 26.2654 37.252C26.3774 36.6453 26.5687 36.0947 26.8394 35.6C27.1194 35.1053 27.4974 34.704 27.9734 34.396C28.4494 34.0787 29.0561 33.92 29.7934 33.92C30.5307 33.92 31.1374 34.0787 31.6134 34.396C32.0894 34.704 32.4627 35.1053 32.7334 35.6C33.0134 36.0947 33.2047 36.6453 33.3074 37.252C33.4194 37.8587 33.4754 38.456 33.4754 39.044C33.4754 39.632 33.4194 40.2293 33.3074 40.836C33.2047 41.4427 33.0134 41.9933 32.7334 42.488C32.4627 42.9827 32.0894 43.3887 31.6134 43.706C31.1374 44.014 30.5307 44.168 29.7934 44.168C29.0561 44.168 28.4494 44.014 27.9734 43.706C27.4974 43.3887 27.1194 42.9827 26.8394 42.488C26.5687 41.9933 26.3774 41.4427 26.2654 40.836C26.1627 40.2293 26.1114 39.632 26.1114 39.044ZM28.2114 39.044C28.2114 39.3053 28.2207 39.618 28.2394 39.982C28.2674 40.346 28.3327 40.696 28.4354 41.032C28.5381 41.368 28.6921 41.6527 28.8974 41.886C29.1121 42.1193 29.4107 42.236 29.7934 42.236C30.1667 42.236 30.4607 42.1193 30.6754 41.886C30.8901 41.6527 31.0487 41.368 31.1514 41.032C31.2541 40.696 31.3147 40.346 31.3334 39.982C31.3614 39.618 31.3754 39.3053 31.3754 39.044C31.3754 38.7827 31.3614 38.47 31.3334 38.106C31.3147 37.742 31.2541 37.392 31.1514 37.056C31.0487 36.72 30.8901 36.4353 30.6754 36.202C30.4607 35.9687 30.1667 35.852 29.7934 35.852C29.4107 35.852 29.1121 35.9687 28.8974 36.202C28.6921 36.4353 28.5381 36.72 28.4354 37.056C28.3327 37.392 28.2674 37.742 28.2394 38.106C28.2207 38.47 28.2114 38.7827 28.2114 39.044ZM41.0466 41.382C41.0466 40.9993 41.1166 40.64 41.2566 40.304C41.4059 39.968 41.6019 39.674 41.8446 39.422C42.0966 39.17 42.3906 38.974 42.7266 38.834C43.0626 38.6847 43.4219 38.61 43.8046 38.61C44.1872 38.61 44.5466 38.6847 44.8826 38.834C45.2186 38.974 45.5079 39.17 45.7506 39.422C46.0026 39.674 46.1986 39.968 46.3386 40.304C46.4879 40.64 46.5626 40.9993 46.5626 41.382C46.5626 41.7647 46.4879 42.1287 46.3386 42.474C46.1986 42.81 46.0026 43.104 45.7506 43.356C45.5079 43.608 45.2186 43.8087 44.8826 43.958C44.5466 44.098 44.1872 44.168 43.8046 44.168C43.4219 44.168 43.0626 44.098 42.7266 43.958C42.3906 43.8087 42.0966 43.608 41.8446 43.356C41.6019 43.104 41.4059 42.81 41.2566 42.474C41.1166 42.1287 41.0466 41.7647 41.0466 41.382ZM45.1346 41.382C45.1346 41.0087 45.0039 40.6913 44.7426 40.43C44.4906 40.1687 44.1779 40.038 43.8046 40.038C43.4312 40.038 43.1139 40.1687 42.8526 40.43C42.6006 40.6913 42.4746 41.0087 42.4746 41.382C42.4746 41.7647 42.6006 42.0867 42.8526 42.348C43.1139 42.6093 43.4312 42.74 43.8046 42.74C44.1779 42.74 44.4906 42.6093 44.7426 42.348C45.0039 42.0867 45.1346 41.7647 45.1346 41.382ZM34.0046 36.692C34.0046 36.3093 34.0746 35.95 34.2146 35.614C34.3639 35.278 34.5599 34.984 34.8026 34.732C35.0546 34.48 35.3486 34.284 35.6846 34.144C36.0206 33.9947 36.3799 33.92 36.7626 33.92C37.1452 33.92 37.5046 33.9947 37.8406 34.144C38.1766 34.284 38.4659 34.48 38.7086 34.732C38.9606 34.984 39.1566 35.278 39.2966 35.614C39.4459 35.95 39.5206 36.3093 39.5206 36.692C39.5206 37.0747 39.4459 37.434 39.2966 37.77C39.1566 38.106 38.9606 38.4 38.7086 38.652C38.4659 38.904 38.1766 39.1047 37.8406 39.254C37.5046 39.394 37.1452 39.464 36.7626 39.464C36.3799 39.464 36.0206 39.394 35.6846 39.254C35.3486 39.1047 35.0546 38.904 34.8026 38.652C34.5599 38.4 34.3639 38.106 34.2146 37.77C34.0746 37.434 34.0046 37.0747 34.0046 36.692ZM38.0926 36.692C38.0926 36.3187 37.9619 36.0013 37.7006 35.74C37.4486 35.4787 37.1359 35.348 36.7626 35.348C36.3892 35.348 36.0719 35.4787 35.8106 35.74C35.5586 36.0013 35.4326 36.3187 35.4326 36.692C35.4326 37.0653 35.5586 37.3827 35.8106 37.644C36.0719 37.9053 36.3892 38.036 36.7626 38.036C37.1359 38.036 37.4486 37.9053 37.7006 37.644C37.9619 37.3827 38.0926 37.0653 38.0926 36.692ZM42.5446 33.64L43.7206 34.298L37.9386 44.448L36.8746 43.846L42.5446 33.64Z" fill="#274FED"/>
<defs>
<filter id="filter0_d_4713_16" x="-3" y="0" width="70" height="70" filterUnits="userSpaceOnUse" color-interpolation-filters="sRGB">
<feFlood flood-opacity="0" result="BackgroundImageFix"/>
<feColorMatrix in="SourceAlpha" type="matrix" values="0 0 0 0 0 0 0 0 0 0 0 0 0 0 0 0 0 0 127 0" result="hardAlpha"/>
<feOffset dy="4"/>
<feGaussianBlur stdDeviation="5"/>
<feColorMatrix type="matrix" values="0 0 0 0 0 0 0 0 0 0 0 0 0 0 0 0 0 0 0.05 0"/>
<feBlend mode="normal" in2="BackgroundImageFix" result="effect1_dropShadow_4713_16"/>
<feBlend mode="normal" in="SourceGraphic" in2="effect1_dropShadow_4713_16" result="shape"/>
</filter>
</defs>
</svg>
